<svg xmlns="http://www.w3.org/2000/svg" viewBox="0 0 48 48" width="48" height="48">
  <path fill="#4285F4" d="M45.12 24.5c0-1.56-.14-3.06-.4-4.5H24v8.51h11.84c-.51 2.75-2.06 5.08-4.39 6.64v5.52h7.11c4.16-3.83 6.56-9.47 6.56-16.17z"/>
  <path fill="#34A853" d="M24 46c5.94 0 10.92-1.97 14.56-5.33l-7.11-5.52c-1.97 1.32-4.49 2.1-7.45 2.1-5.73 0-10.58-3.87-12.31-9.07H4.4v5.7C8.01 41.03 15.37 46 24 46z"/>
  <path fill="#FBBC05" d="M11.69 28.18C11.25 26.86 11 25.45 11 24s.25-2.86.69-4.18v-5.7H4.4C2.85 17.09 2 20.45 2 24c0 3.55.85 6.91 2.4 9.88l7.29-5.7z"/>
  <path fill="#EA4335" d="M24 9.75c3.23 0 6.13 1.11 8.41 3.29l6.31-6.31C34.91 3.6 29.93 1.5 24 1.5 15.37 1.5 8.01 6.47 4.4 14.12l7.29 5.7C13.42 13.62 18.27 9.75 24 9.75z"/>
  <path fill="none" d="M2 2h44v44H2z"/>
</svg>
